<svg xmlns="http://www.w3.org/2000/svg" xmlns:rdkit="http://www.rdkit.org/xml" xmlns:xlink="http://www.w3.org/1999/xlink" version="1.1" baseProfile="full" xml:space="preserve" width="800px" height="300px" viewBox="0 0 800 300">
<!-- END OF HEADER -->
<rect style="opacity:1.0;fill:#FFFFFF;stroke:none" width="800.0" height="300.0" x="0.0" y="0.0"> </rect>
<path class="bond-0 atom-0 atom-1" d="M 155.4,181.6 L 160.0,186.1 L 131.7,193.7 L 133.4,187.5 Z" style="fill:#FFFFAA;fill-rule:evenodd;fill-opacity:1;stroke:#FFFFAA;stroke-width:0.0px;stroke-linecap:butt;stroke-linejoin:miter;stroke-opacity:1;"/>
<path class="bond-12 atom-0 atom-9" d="M 117.2,171.3 L 133.4,187.5 L 131.7,193.7 L 111.0,173.0 Z" style="fill:#FFFFAA;fill-rule:evenodd;fill-opacity:1;stroke:#FFFFAA;stroke-width:0.0px;stroke-linecap:butt;stroke-linejoin:miter;stroke-opacity:1;"/>
<path class="bond-1 atom-1 atom-2" d="M 164.4,158.7 L 166.7,161.0 L 160.0,186.1 L 155.4,181.6 L 161.3,159.5 Z" style="fill:#FFFFAA;fill-rule:evenodd;fill-opacity:1;stroke:#FFFFAA;stroke-width:0.0px;stroke-linecap:butt;stroke-linejoin:miter;stroke-opacity:1;"/>
<path class="bond-2 atom-2 atom-3" d="M 187.3,149.7 L 191.9,154.2 L 166.7,161.0 L 164.4,158.7 L 165.3,155.6 Z" style="fill:#FFFFAA;fill-rule:evenodd;fill-opacity:1;stroke:#FFFFAA;stroke-width:0.0px;stroke-linecap:butt;stroke-linejoin:miter;stroke-opacity:1;"/>
<path class="bond-13 atom-2 atom-7" d="M 149.1,139.4 L 165.3,155.6 L 164.4,158.7 L 161.3,159.5 L 145.2,143.4 L 146.0,140.3 Z" style="fill:#FFFFAA;fill-rule:evenodd;fill-opacity:1;stroke:#FFFFAA;stroke-width:0.0px;stroke-linecap:butt;stroke-linejoin:miter;stroke-opacity:1;"/>
<path class="bond-3 atom-3 atom-4" d="M 199.4,126.0 L 191.9,154.2 L 187.3,149.7 L 193.2,127.6 Z" style="fill:#FFFFAA;fill-rule:evenodd;fill-opacity:1;stroke:#FFFFAA;stroke-width:0.0px;stroke-linecap:butt;stroke-linejoin:miter;stroke-opacity:1;"/>
<path class="bond-4 atom-4 atom-5" d="M 178.7,105.3 L 199.4,126.0 L 193.2,127.6 L 177.1,111.5 Z" style="fill:#FFFFAA;fill-rule:evenodd;fill-opacity:1;stroke:#FFFFAA;stroke-width:0.0px;stroke-linecap:butt;stroke-linejoin:miter;stroke-opacity:1;"/>
<path class="bond-5 atom-5 atom-6" d="M 178.7,105.3 L 177.1,111.5 L 155.0,117.4 L 150.5,112.8 Z" style="fill:#FFFFAA;fill-rule:evenodd;fill-opacity:1;stroke:#FFFFAA;stroke-width:0.0px;stroke-linecap:butt;stroke-linejoin:miter;stroke-opacity:1;"/>
<path class="bond-6 atom-6 atom-7" d="M 150.5,112.8 L 155.0,117.4 L 149.1,139.4 L 146.0,140.3 L 143.7,138.0 Z" style="fill:#FFFFAA;fill-rule:evenodd;fill-opacity:1;stroke:#FFFFAA;stroke-width:0.0px;stroke-linecap:butt;stroke-linejoin:miter;stroke-opacity:1;"/>
<path class="bond-7 atom-7 atom-8" d="M 143.7,138.0 L 146.0,140.3 L 145.2,143.4 L 123.1,149.3 L 120.9,147.0 L 121.7,143.9 Z" style="fill:#FFFFAA;fill-rule:evenodd;fill-opacity:1;stroke:#FFFFAA;stroke-width:0.0px;stroke-linecap:butt;stroke-linejoin:miter;stroke-opacity:1;"/>
<path class="bond-8 atom-8 atom-9" d="M 120.9,147.0 L 123.1,149.3 L 117.2,171.3 L 111.0,173.0 L 117.8,147.8 Z" style="fill:#FFFFAA;fill-rule:evenodd;fill-opacity:1;stroke:#FFFFAA;stroke-width:0.0px;stroke-linecap:butt;stroke-linejoin:miter;stroke-opacity:1;"/>
<path class="bond-9 atom-8 atom-10" d="M 103.3,125.5 L 121.7,143.9 L 120.9,147.0 L 117.8,147.8 L 101.6,131.7 Z" style="fill:#FFFFAA;fill-rule:evenodd;fill-opacity:1;stroke:#FFFFAA;stroke-width:0.0px;stroke-linecap:butt;stroke-linejoin:miter;stroke-opacity:1;"/>
<path class="bond-10 atom-10 atom-11" d="M 103.3,125.5 L 101.6,131.7 L 78.0,138.0 L 76.6,132.7 Z" style="fill:#FFFFAA;fill-rule:evenodd;fill-opacity:1;stroke:#FFFFAA;stroke-width:0.0px;stroke-linecap:butt;stroke-linejoin:miter;stroke-opacity:1;"/>
<ellipse cx="132.5" cy="190.6" rx="5.2" ry="5.2" class="atom-0" style="fill:#FFFFAA;fill-rule:evenodd;stroke:#FFFFAA;stroke-width:1.0px;stroke-linecap:butt;stroke-linejoin:miter;stroke-opacity:1"/>
<ellipse cx="157.7" cy="183.8" rx="5.2" ry="5.2" class="atom-1" style="fill:#FFFFAA;fill-rule:evenodd;stroke:#FFFFAA;stroke-width:1.0px;stroke-linecap:butt;stroke-linejoin:miter;stroke-opacity:1"/>
<ellipse cx="164.4" cy="158.7" rx="5.2" ry="5.2" class="atom-2" style="fill:#FFFFAA;fill-rule:evenodd;stroke:#FFFFAA;stroke-width:1.0px;stroke-linecap:butt;stroke-linejoin:miter;stroke-opacity:1"/>
<ellipse cx="189.6" cy="151.9" rx="5.2" ry="5.2" class="atom-3" style="fill:#FFFFAA;fill-rule:evenodd;stroke:#FFFFAA;stroke-width:1.0px;stroke-linecap:butt;stroke-linejoin:miter;stroke-opacity:1"/>
<ellipse cx="196.3" cy="126.8" rx="5.2" ry="6.0" class="atom-4" style="fill:#FFFFAA;fill-rule:evenodd;stroke:#FFFFAA;stroke-width:1.0px;stroke-linecap:butt;stroke-linejoin:miter;stroke-opacity:1"/>
<ellipse cx="177.9" cy="108.4" rx="5.2" ry="5.2" class="atom-5" style="fill:#FFFFAA;fill-rule:evenodd;stroke:#FFFFAA;stroke-width:1.0px;stroke-linecap:butt;stroke-linejoin:miter;stroke-opacity:1"/>
<ellipse cx="152.8" cy="115.1" rx="5.2" ry="5.2" class="atom-6" style="fill:#FFFFAA;fill-rule:evenodd;stroke:#FFFFAA;stroke-width:1.0px;stroke-linecap:butt;stroke-linejoin:miter;stroke-opacity:1"/>
<ellipse cx="146.0" cy="140.3" rx="5.2" ry="5.2" class="atom-7" style="fill:#FFFFAA;fill-rule:evenodd;stroke:#FFFFAA;stroke-width:1.0px;stroke-linecap:butt;stroke-linejoin:miter;stroke-opacity:1"/>
<ellipse cx="120.9" cy="147.0" rx="5.2" ry="5.2" class="atom-8" style="fill:#FFFFAA;fill-rule:evenodd;stroke:#FFFFAA;stroke-width:1.0px;stroke-linecap:butt;stroke-linejoin:miter;stroke-opacity:1"/>
<ellipse cx="114.1" cy="172.2" rx="5.2" ry="5.2" class="atom-9" style="fill:#FFFFAA;fill-rule:evenodd;stroke:#FFFFAA;stroke-width:1.0px;stroke-linecap:butt;stroke-linejoin:miter;stroke-opacity:1"/>
<ellipse cx="102.4" cy="128.6" rx="5.2" ry="5.2" class="atom-10" style="fill:#FFFFAA;fill-rule:evenodd;stroke:#FFFFAA;stroke-width:1.0px;stroke-linecap:butt;stroke-linejoin:miter;stroke-opacity:1"/>
<ellipse cx="77.3" cy="135.4" rx="5.5" ry="6.1" class="atom-11" style="fill:#FFFFAA;fill-rule:evenodd;stroke:#FFFFAA;stroke-width:1.0px;stroke-linecap:butt;stroke-linejoin:miter;stroke-opacity:1"/>
<path class="bond-0 atom-0 atom-1" d="M 132.5,190.6 L 157.7,183.8" style="fill:none;fill-rule:evenodd;stroke:#000000;stroke-width:2.0px;stroke-linecap:butt;stroke-linejoin:miter;stroke-opacity:1"/>
<path class="bond-0 atom-0 atom-1" d="M 133.7,186.2 L 154.5,180.6" style="fill:none;fill-rule:evenodd;stroke:#000000;stroke-width:2.0px;stroke-linecap:butt;stroke-linejoin:miter;stroke-opacity:1"/>
<path class="bond-1 atom-1 atom-2" d="M 157.7,183.8 L 164.4,158.7" style="fill:none;fill-rule:evenodd;stroke:#000000;stroke-width:2.0px;stroke-linecap:butt;stroke-linejoin:miter;stroke-opacity:1"/>
<path class="bond-2 atom-2 atom-3" d="M 164.4,158.7 L 189.6,151.9" style="fill:none;fill-rule:evenodd;stroke:#000000;stroke-width:2.0px;stroke-linecap:butt;stroke-linejoin:miter;stroke-opacity:1"/>
<path class="bond-2 atom-2 atom-3" d="M 165.6,154.3 L 186.4,148.8" style="fill:none;fill-rule:evenodd;stroke:#000000;stroke-width:2.0px;stroke-linecap:butt;stroke-linejoin:miter;stroke-opacity:1"/>
<path class="bond-3 atom-3 atom-4" d="M 189.6,151.9 L 192.3,141.9" style="fill:none;fill-rule:evenodd;stroke:#000000;stroke-width:2.0px;stroke-linecap:butt;stroke-linejoin:miter;stroke-opacity:1"/>
<path class="bond-3 atom-3 atom-4" d="M 192.3,141.9 L 195.0,131.9" style="fill:none;fill-rule:evenodd;stroke:#0000FF;stroke-width:2.0px;stroke-linecap:butt;stroke-linejoin:miter;stroke-opacity:1"/>
<path class="bond-4 atom-4 atom-5" d="M 192.3,122.7 L 185.1,115.5" style="fill:none;fill-rule:evenodd;stroke:#0000FF;stroke-width:2.0px;stroke-linecap:butt;stroke-linejoin:miter;stroke-opacity:1"/>
<path class="bond-4 atom-4 atom-5" d="M 185.1,115.5 L 177.9,108.4" style="fill:none;fill-rule:evenodd;stroke:#000000;stroke-width:2.0px;stroke-linecap:butt;stroke-linejoin:miter;stroke-opacity:1"/>
<path class="bond-4 atom-4 atom-5" d="M 189.5,125.5 L 183.1,119.1" style="fill:none;fill-rule:evenodd;stroke:#0000FF;stroke-width:2.0px;stroke-linecap:butt;stroke-linejoin:miter;stroke-opacity:1"/>
<path class="bond-4 atom-4 atom-5" d="M 183.1,119.1 L 176.7,112.7" style="fill:none;fill-rule:evenodd;stroke:#000000;stroke-width:2.0px;stroke-linecap:butt;stroke-linejoin:miter;stroke-opacity:1"/>
<path class="bond-5 atom-5 atom-6" d="M 177.9,108.4 L 152.8,115.1" style="fill:none;fill-rule:evenodd;stroke:#000000;stroke-width:2.0px;stroke-linecap:butt;stroke-linejoin:miter;stroke-opacity:1"/>
<path class="bond-6 atom-6 atom-7" d="M 152.8,115.1 L 146.0,140.3" style="fill:none;fill-rule:evenodd;stroke:#000000;stroke-width:2.0px;stroke-linecap:butt;stroke-linejoin:miter;stroke-opacity:1"/>
<path class="bond-6 atom-6 atom-7" d="M 155.9,118.3 L 150.4,139.1" style="fill:none;fill-rule:evenodd;stroke:#000000;stroke-width:2.0px;stroke-linecap:butt;stroke-linejoin:miter;stroke-opacity:1"/>
<path class="bond-7 atom-7 atom-8" d="M 146.0,140.3 L 120.9,147.0" style="fill:none;fill-rule:evenodd;stroke:#000000;stroke-width:2.0px;stroke-linecap:butt;stroke-linejoin:miter;stroke-opacity:1"/>
<path class="bond-8 atom-8 atom-9" d="M 120.9,147.0 L 114.1,172.2" style="fill:none;fill-rule:evenodd;stroke:#000000;stroke-width:2.0px;stroke-linecap:butt;stroke-linejoin:miter;stroke-opacity:1"/>
<path class="bond-8 atom-8 atom-9" d="M 124.1,150.2 L 118.5,171.0" style="fill:none;fill-rule:evenodd;stroke:#000000;stroke-width:2.0px;stroke-linecap:butt;stroke-linejoin:miter;stroke-opacity:1"/>
<path class="bond-9 atom-8 atom-10" d="M 120.9,147.0 L 102.4,128.6" style="fill:none;fill-rule:evenodd;stroke:#000000;stroke-width:2.0px;stroke-linecap:butt;stroke-linejoin:miter;stroke-opacity:1"/>
<path class="bond-10 atom-10 atom-11" d="M 103.0,126.4 L 92.3,129.3" style="fill:none;fill-rule:evenodd;stroke:#000000;stroke-width:2.0px;stroke-linecap:butt;stroke-linejoin:miter;stroke-opacity:1"/>
<path class="bond-10 atom-10 atom-11" d="M 92.3,129.3 L 81.5,132.2" style="fill:none;fill-rule:evenodd;stroke:#FF0000;stroke-width:2.0px;stroke-linecap:butt;stroke-linejoin:miter;stroke-opacity:1"/>
<path class="bond-10 atom-10 atom-11" d="M 104.0,130.2 L 93.3,133.1" style="fill:none;fill-rule:evenodd;stroke:#000000;stroke-width:2.0px;stroke-linecap:butt;stroke-linejoin:miter;stroke-opacity:1"/>
<path class="bond-10 atom-10 atom-11" d="M 93.3,133.1 L 82.5,136.0" style="fill:none;fill-rule:evenodd;stroke:#FF0000;stroke-width:2.0px;stroke-linecap:butt;stroke-linejoin:miter;stroke-opacity:1"/>
<path class="bond-11 atom-10 atom-12" d="M 102.4,128.6 L 105.1,118.7" style="fill:none;fill-rule:evenodd;stroke:#000000;stroke-width:2.0px;stroke-linecap:butt;stroke-linejoin:miter;stroke-opacity:1"/>
<path class="bond-11 atom-10 atom-12" d="M 105.1,118.7 L 107.8,108.7" style="fill:none;fill-rule:evenodd;stroke:#FF0000;stroke-width:2.0px;stroke-linecap:butt;stroke-linejoin:miter;stroke-opacity:1"/>
<path class="bond-12 atom-9 atom-0" d="M 114.1,172.2 L 132.5,190.6" style="fill:none;fill-rule:evenodd;stroke:#000000;stroke-width:2.0px;stroke-linecap:butt;stroke-linejoin:miter;stroke-opacity:1"/>
<path class="bond-13 atom-7 atom-2" d="M 146.0,140.3 L 164.4,158.7" style="fill:none;fill-rule:evenodd;stroke:#000000;stroke-width:2.0px;stroke-linecap:butt;stroke-linejoin:miter;stroke-opacity:1"/>
<path d="M 133.8,190.2 L 132.5,190.6 L 131.6,189.7" style="fill:none;stroke:#000000;stroke-width:2.0px;stroke-linecap:butt;stroke-linejoin:miter;stroke-opacity:1;"/>
<path d="M 156.4,184.2 L 157.7,183.8 L 158.0,182.6" style="fill:none;stroke:#000000;stroke-width:2.0px;stroke-linecap:butt;stroke-linejoin:miter;stroke-opacity:1;"/>
<path d="M 188.3,152.3 L 189.6,151.9 L 189.7,151.4" style="fill:none;stroke:#000000;stroke-width:2.0px;stroke-linecap:butt;stroke-linejoin:miter;stroke-opacity:1;"/>
<path d="M 178.3,108.7 L 177.9,108.4 L 176.7,108.7" style="fill:none;stroke:#000000;stroke-width:2.0px;stroke-linecap:butt;stroke-linejoin:miter;stroke-opacity:1;"/>
<path d="M 154.0,114.8 L 152.8,115.1 L 152.4,116.4" style="fill:none;stroke:#000000;stroke-width:2.0px;stroke-linecap:butt;stroke-linejoin:miter;stroke-opacity:1;"/>
<path d="M 114.5,170.9 L 114.1,172.2 L 115.0,173.1" style="fill:none;stroke:#000000;stroke-width:2.0px;stroke-linecap:butt;stroke-linejoin:miter;stroke-opacity:1;"/>
<path d="M 103.4,129.5 L 102.4,128.6 L 102.6,128.1" style="fill:none;stroke:#000000;stroke-width:2.0px;stroke-linecap:butt;stroke-linejoin:miter;stroke-opacity:1;"/>
<path class="atom-4" d="M 194.4 122.5 L 197.2 127.0 Q 197.5 127.5, 197.9 128.3 Q 198.4 129.1, 198.4 129.1 L 198.4 122.5 L 199.5 122.5 L 199.5 131.0 L 198.4 131.0 L 195.4 126.1 Q 195.0 125.5, 194.7 124.9 Q 194.3 124.2, 194.2 124.0 L 194.2 131.0 L 193.1 131.0 L 193.1 122.5 L 194.4 122.5 " fill="#0000FF"/>
<path class="atom-11" d="M 73.4 135.4 Q 73.4 133.3, 74.4 132.2 Q 75.4 131.0, 77.3 131.0 Q 79.2 131.0, 80.2 132.2 Q 81.2 133.3, 81.2 135.4 Q 81.2 137.4, 80.2 138.6 Q 79.2 139.8, 77.3 139.8 Q 75.4 139.8, 74.4 138.6 Q 73.4 137.4, 73.4 135.4 M 77.3 138.8 Q 78.6 138.8, 79.3 137.9 Q 80.0 137.1, 80.0 135.4 Q 80.0 133.7, 79.3 132.9 Q 78.6 132.0, 77.3 132.0 Q 76.0 132.0, 75.3 132.8 Q 74.6 133.7, 74.6 135.4 Q 74.6 137.1, 75.3 137.9 Q 76.0 138.8, 77.3 138.8 " fill="#FF0000"/>
<path class="atom-12" d="M 105.3 103.5 Q 105.3 101.4, 106.3 100.3 Q 107.3 99.1, 109.2 99.1 Q 111.1 99.1, 112.1 100.3 Q 113.1 101.4, 113.1 103.5 Q 113.1 105.5, 112.1 106.7 Q 111.0 107.9, 109.2 107.9 Q 107.3 107.9, 106.3 106.7 Q 105.3 105.5, 105.3 103.5 M 109.2 106.9 Q 110.5 106.9, 111.2 106.0 Q 111.9 105.2, 111.9 103.5 Q 111.9 101.8, 111.2 101.0 Q 110.5 100.1, 109.2 100.1 Q 107.9 100.1, 107.2 100.9 Q 106.5 101.8, 106.5 103.5 Q 106.5 105.2, 107.2 106.0 Q 107.9 106.9, 109.2 106.9 " fill="#FF0000"/>
<path class="atom-12" d="M 114.4 99.2 L 115.6 99.2 L 115.6 102.9 L 119.9 102.9 L 119.9 99.2 L 121.1 99.2 L 121.1 107.7 L 119.9 107.7 L 119.9 103.8 L 115.6 103.8 L 115.6 107.7 L 114.4 107.7 L 114.4 99.2 " fill="#FF0000"/>
<path class="note" d="M 130.5 197.9 Q 131.2 197.9, 131.8 198.2 Q 132.5 198.5, 132.8 199.1 Q 133.2 199.7, 133.2 200.5 Q 133.2 201.4, 132.7 202.0 Q 132.3 202.6, 131.6 203.0 Q 130.9 203.3, 130.1 203.3 Q 129.4 203.3, 128.6 203.0 Q 127.9 202.7, 127.4 202.2 L 128.1 201.4 Q 128.5 201.9, 129.1 202.1 Q 129.6 202.3, 130.2 202.3 Q 130.9 202.3, 131.4 201.9 Q 132.0 201.4, 132.0 200.5 Q 132.0 199.6, 131.4 199.2 Q 130.9 198.8, 130.1 198.8 Q 129.4 198.8, 128.5 199.1 L 127.9 198.8 L 128.3 194.7 L 132.6 194.7 L 132.5 195.7 L 129.3 195.7 L 129.0 198.2 Q 129.8 197.9, 130.5 197.9 " fill="#000000"/>
<path class="note" d="M 164.2 189.0 Q 164.9 189.0, 165.5 189.3 Q 166.1 189.6, 166.4 190.2 Q 166.8 190.8, 166.8 191.5 Q 166.8 192.4, 166.4 193.0 Q 166.0 193.6, 165.4 194.0 Q 164.7 194.3, 163.9 194.3 Q 162.4 194.3, 161.6 193.3 Q 160.9 192.3, 160.9 190.3 Q 160.9 188.0, 161.8 186.9 Q 162.8 185.7, 164.6 185.7 Q 165.1 185.7, 165.5 185.8 Q 166.0 185.9, 166.4 186.2 L 166.0 187.0 Q 165.3 186.7, 164.6 186.7 Q 163.4 186.7, 162.8 187.4 Q 162.2 188.2, 162.1 189.8 Q 162.5 189.4, 163.1 189.2 Q 163.6 189.0, 164.2 189.0 M 163.9 193.4 Q 164.4 193.4, 164.8 193.1 Q 165.1 192.9, 165.4 192.5 Q 165.6 192.1, 165.6 191.5 Q 165.6 190.8, 165.1 190.4 Q 164.7 189.9, 164.0 189.9 Q 163.5 189.9, 163.0 190.1 Q 162.5 190.3, 162.1 190.7 Q 162.1 192.1, 162.6 192.7 Q 163.0 193.4, 163.9 193.4 " fill="#000000"/>
<path class="note" d="M 172.2 161.5 L 167.8 161.5 L 167.8 160.6 L 173.4 160.6 L 173.4 161.4 L 170.0 169.1 L 168.8 169.1 L 172.2 161.5 " fill="#000000"/>
<path class="note" d="M 197.0 157.9 Q 197.8 158.2, 198.3 158.7 Q 198.7 159.2, 198.7 160.0 Q 198.7 160.8, 198.3 161.3 Q 198.0 161.9, 197.3 162.2 Q 196.6 162.5, 195.8 162.5 Q 194.4 162.5, 193.5 161.8 Q 192.7 161.2, 192.7 160.0 Q 192.7 159.3, 193.1 158.8 Q 193.5 158.3, 194.2 157.9 Q 193.6 157.6, 193.3 157.1 Q 193.0 156.7, 193.0 156.0 Q 193.0 155.0, 193.8 154.4 Q 194.5 153.8, 195.7 153.8 Q 197.0 153.8, 197.7 154.4 Q 198.4 155.0, 198.4 156.0 Q 198.4 156.6, 198.1 157.1 Q 197.7 157.5, 197.0 157.9 M 195.7 154.7 Q 195.0 154.7, 194.6 155.0 Q 194.2 155.4, 194.2 156.0 Q 194.2 156.4, 194.5 156.7 Q 194.8 157.0, 195.1 157.2 Q 195.5 157.3, 196.2 157.6 Q 196.8 157.2, 197.0 156.8 Q 197.2 156.5, 197.2 156.0 Q 197.2 155.4, 196.8 155.0 Q 196.4 154.7, 195.7 154.7 M 195.8 161.6 Q 196.6 161.6, 197.0 161.2 Q 197.5 160.7, 197.5 160.0 Q 197.5 159.6, 197.3 159.3 Q 197.0 159.0, 196.6 158.8 Q 196.3 158.7, 195.6 158.5 L 195.1 158.3 Q 194.5 158.6, 194.2 159.1 Q 193.9 159.5, 193.9 160.0 Q 193.9 160.7, 194.4 161.2 Q 194.9 161.6, 195.8 161.6 " fill="#000000"/>
<path class="note" d="M 204.6 120.3 Q 206.1 120.3, 206.9 121.3 Q 207.6 122.3, 207.6 124.3 Q 207.6 126.6, 206.7 127.8 Q 205.8 128.9, 204.0 128.9 Q 203.4 128.9, 203.0 128.8 Q 202.5 128.7, 202.1 128.4 L 202.6 127.6 Q 203.2 128.0, 203.9 128.0 Q 205.1 128.0, 205.8 127.2 Q 206.4 126.4, 206.4 124.8 Q 206.0 125.2, 205.5 125.4 Q 204.9 125.6, 204.3 125.6 Q 203.6 125.6, 203.0 125.3 Q 202.4 125.0, 202.1 124.4 Q 201.8 123.8, 201.8 123.1 Q 201.8 122.3, 202.1 121.6 Q 202.5 121.0, 203.1 120.6 Q 203.8 120.3, 204.6 120.3 M 203.0 123.1 Q 203.0 123.8, 203.4 124.3 Q 203.8 124.7, 204.5 124.7 Q 205.1 124.7, 205.6 124.5 Q 206.1 124.3, 206.4 123.9 Q 206.4 122.5, 205.9 121.9 Q 205.5 121.2, 204.6 121.2 Q 204.2 121.2, 203.8 121.5 Q 203.4 121.7, 203.2 122.1 Q 203.0 122.6, 203.0 123.1 " fill="#000000"/>
<path class="note" d="M 174.4 103.3 L 176.3 103.3 L 176.3 97.0 L 174.3 97.6 L 174.0 96.9 L 176.6 95.8 L 177.4 95.9 L 177.4 103.3 L 179.1 103.3 L 179.1 104.3 L 174.4 104.3 L 174.4 103.3 " fill="#000000"/>
<path class="note" d="M 183.2 104.4 Q 181.7 104.4, 180.9 103.2 Q 180.1 102.1, 180.1 100.0 Q 180.1 98.0, 180.9 96.8 Q 181.7 95.7, 183.2 95.7 Q 184.8 95.7, 185.6 96.8 Q 186.3 98.0, 186.3 100.0 Q 186.3 102.1, 185.6 103.2 Q 184.8 104.4, 183.2 104.4 M 183.2 103.4 Q 184.2 103.4, 184.7 102.6 Q 185.1 101.7, 185.1 100.0 Q 185.1 98.4, 184.7 97.5 Q 184.2 96.7, 183.2 96.7 Q 182.3 96.7, 181.8 97.5 Q 181.3 98.4, 181.3 100.0 Q 181.3 101.7, 181.8 102.6 Q 182.3 103.4, 183.2 103.4 " fill="#000000"/>
<path class="note" d="M 141.5 112.3 L 143.3 112.3 L 143.3 106.0 L 141.3 106.6 L 141.0 105.9 L 143.6 104.7 L 144.5 104.9 L 144.5 112.3 L 146.1 112.3 L 146.1 113.2 L 141.5 113.2 L 141.5 112.3 " fill="#000000"/>
<path class="note" d="M 147.6 112.3 L 149.4 112.3 L 149.4 106.0 L 147.4 106.6 L 147.1 105.9 L 149.7 104.7 L 150.6 104.9 L 150.6 112.3 L 152.2 112.3 L 152.2 113.2 L 147.6 113.2 L 147.6 112.3 " fill="#000000"/>
<path class="note" d="M 131.4 134.4 L 133.2 134.4 L 133.2 128.1 L 131.2 128.7 L 130.9 128.0 L 133.5 126.8 L 134.3 127.0 L 134.3 134.4 L 136.0 134.4 L 136.0 135.3 L 131.4 135.3 L 131.4 134.4 " fill="#000000"/>
<path class="note" d="M 137.1 128.5 Q 137.4 127.7, 138.1 127.2 Q 138.8 126.8, 139.9 126.8 Q 141.2 126.8, 141.9 127.5 Q 142.6 128.2, 142.6 129.4 Q 142.6 130.7, 141.7 131.8 Q 140.7 133.0, 138.8 134.4 L 142.7 134.4 L 142.7 135.3 L 137.0 135.3 L 137.0 134.5 Q 138.6 133.4, 139.5 132.6 Q 140.5 131.7, 140.9 131.0 Q 141.4 130.2, 141.4 129.5 Q 141.4 128.6, 141.0 128.2 Q 140.6 127.7, 139.9 127.7 Q 139.2 127.7, 138.7 128.0 Q 138.3 128.3, 138.0 128.9 L 137.1 128.5 " fill="#000000"/>
<path class="note" d="M 113.7 149.1 Q 114.5 149.3, 114.9 149.9 Q 115.3 150.4, 115.3 151.2 Q 115.3 151.9, 115.0 152.5 Q 114.6 153.0, 113.9 153.4 Q 113.3 153.7, 112.4 153.7 Q 111.5 153.7, 110.8 153.3 Q 110.2 153.0, 109.6 152.4 L 110.3 151.7 Q 110.8 152.3, 111.3 152.5 Q 111.7 152.7, 112.4 152.7 Q 113.2 152.7, 113.7 152.3 Q 114.1 151.9, 114.1 151.2 Q 114.1 150.3, 113.6 150.0 Q 113.2 149.6, 112.1 149.6 L 111.5 149.6 L 111.5 148.7 L 112.0 148.7 Q 113.0 148.7, 113.5 148.3 Q 113.9 147.9, 113.9 147.1 Q 113.9 146.6, 113.5 146.3 Q 113.1 145.9, 112.4 145.9 Q 111.7 145.9, 111.3 146.2 Q 110.9 146.4, 110.5 147.1 L 109.7 146.6 Q 110.0 145.9, 110.7 145.5 Q 111.4 145.0, 112.4 145.0 Q 113.7 145.0, 114.4 145.6 Q 115.1 146.1, 115.1 147.1 Q 115.1 147.8, 114.8 148.3 Q 114.4 148.8, 113.7 149.1 " fill="#000000"/>
<path class="note" d="M 112.2 174.6 L 113.2 174.6 L 113.2 175.6 L 112.2 175.6 L 112.2 177.5 L 111.0 177.5 L 111.0 175.6 L 106.7 175.6 L 106.7 174.8 L 110.4 169.1 L 112.2 169.1 L 112.2 174.6 M 108.1 174.6 L 111.0 174.6 L 111.0 169.8 L 108.1 174.6 " fill="#000000"/>
<path class="note" d="M 108.0 123.8 Q 108.3 123.0, 109.1 122.5 Q 109.8 122.1, 110.8 122.1 Q 112.1 122.1, 112.8 122.8 Q 113.5 123.5, 113.5 124.7 Q 113.5 125.9, 112.6 127.1 Q 111.7 128.3, 109.8 129.7 L 113.7 129.7 L 113.7 130.6 L 108.0 130.6 L 108.0 129.8 Q 109.6 128.7, 110.5 127.9 Q 111.4 127.0, 111.9 126.3 Q 112.3 125.5, 112.3 124.7 Q 112.3 123.9, 111.9 123.5 Q 111.5 123.0, 110.8 123.0 Q 110.1 123.0, 109.7 123.3 Q 109.2 123.6, 108.9 124.2 L 108.0 123.8 " fill="#000000"/>
<path class="note" d="M 66.8 140.9 L 68.7 140.9 L 68.7 134.6 L 66.6 135.2 L 66.4 134.5 L 69.0 133.3 L 69.8 133.5 L 69.8 140.9 L 71.5 140.9 L 71.5 141.8 L 66.8 141.8 L 66.8 140.9 " fill="#000000"/>
<path d="M 226.0,143.0 L 226.0,157.0" style="fill:none;fill-rule:evenodd;stroke:#000000;stroke-width:2.0px;stroke-linecap:butt;stroke-linejoin:miter;stroke-opacity:1"/>
<path d="M 219.0,150.0 L 233.0,150.0" style="fill:none;fill-rule:evenodd;stroke:#000000;stroke-width:2.0px;stroke-linecap:butt;stroke-linejoin:miter;stroke-opacity:1"/>
<path class="bond-14 atom-13 atom-14" d="M 260.7,149.4 L 286.7,149.4 L 286.7,154.9 L 260.7,154.9 Z" style="fill:#FFCC99;fill-rule:evenodd;fill-opacity:1;stroke:#FFCC99;stroke-width:0.0px;stroke-linecap:butt;stroke-linejoin:miter;stroke-opacity:1;"/>
<path class="bond-15 atom-14 atom-15" d="M 286.7,149.4 L 312.7,149.4 L 312.7,154.9 L 286.7,154.9 Z" style="fill:#FFCC99;fill-rule:evenodd;fill-opacity:1;stroke:#FFCC99;stroke-width:0.0px;stroke-linecap:butt;stroke-linejoin:miter;stroke-opacity:1;"/>
<ellipse cx="262.9" cy="152.1" rx="7.7" ry="6.0" class="atom-13" style="fill:#FFCC99;fill-rule:evenodd;stroke:#FFCC99;stroke-width:1.0px;stroke-linecap:butt;stroke-linejoin:miter;stroke-opacity:1"/>
<ellipse cx="289.3" cy="152.1" rx="8.3" ry="6.0" class="atom-14" style="fill:#FFCC99;fill-rule:evenodd;stroke:#FFCC99;stroke-width:1.0px;stroke-linecap:butt;stroke-linejoin:miter;stroke-opacity:1"/>
<ellipse cx="314.9" cy="152.1" rx="7.7" ry="6.0" class="atom-15" style="fill:#FFCC99;fill-rule:evenodd;stroke:#FFCC99;stroke-width:1.0px;stroke-linecap:butt;stroke-linejoin:miter;stroke-opacity:1"/>
<path class="bond-14 atom-13 atom-14" d="M 264.7,150.2 L 282.6,150.2" style="fill:none;fill-rule:evenodd;stroke:#0000FF;stroke-width:2.0px;stroke-linecap:butt;stroke-linejoin:miter;stroke-opacity:1"/>
<path class="bond-14 atom-13 atom-14" d="M 264.7,154.1 L 282.6,154.1" style="fill:none;fill-rule:evenodd;stroke:#0000FF;stroke-width:2.0px;stroke-linecap:butt;stroke-linejoin:miter;stroke-opacity:1"/>
<path class="bond-15 atom-14 atom-15" d="M 296.0,150.2 L 308.7,150.2" style="fill:none;fill-rule:evenodd;stroke:#0000FF;stroke-width:2.0px;stroke-linecap:butt;stroke-linejoin:miter;stroke-opacity:1"/>
<path class="bond-15 atom-14 atom-15" d="M 296.0,154.1 L 308.7,154.1" style="fill:none;fill-rule:evenodd;stroke:#0000FF;stroke-width:2.0px;stroke-linecap:butt;stroke-linejoin:miter;stroke-opacity:1"/>
<path class="atom-0" d="M 258.8 147.9 L 261.6 152.4 Q 261.8 152.8, 262.3 153.6 Q 262.7 154.4, 262.7 154.5 L 262.7 147.9 L 263.9 147.9 L 263.9 156.4 L 262.7 156.4 L 259.7 151.5 Q 259.4 150.9, 259.0 150.2 Q 258.6 149.6, 258.5 149.4 L 258.5 156.4 L 257.4 156.4 L 257.4 147.9 L 258.8 147.9 " fill="#0000FF"/>
<path class="atom-0" d="M 265.4 149.3 L 268.3 149.3 L 268.3 149.9 L 265.4 149.9 L 265.4 149.3 " fill="#0000FF"/>
<path class="atom-1" d="M 284.8 147.9 L 287.6 152.4 Q 287.9 152.8, 288.3 153.6 Q 288.8 154.4, 288.8 154.5 L 288.8 147.9 L 289.9 147.9 L 289.9 156.4 L 288.8 156.4 L 285.8 151.5 Q 285.4 150.9, 285.0 150.2 Q 284.7 149.6, 284.6 149.4 L 284.6 156.4 L 283.5 156.4 L 283.5 147.9 L 284.8 147.9 " fill="#0000FF"/>
<path class="atom-1" d="M 291.5 149.4 L 293.0 149.4 L 293.0 147.8 L 293.7 147.8 L 293.7 149.4 L 295.2 149.4 L 295.2 150.0 L 293.7 150.0 L 293.7 151.6 L 293.0 151.6 L 293.0 150.0 L 291.5 150.0 L 291.5 149.4 " fill="#0000FF"/>
<path class="atom-2" d="M 310.9 147.9 L 313.6 152.4 Q 313.9 152.8, 314.4 153.6 Q 314.8 154.4, 314.8 154.5 L 314.8 147.9 L 316.0 147.9 L 316.0 156.4 L 314.8 156.4 L 311.8 151.5 Q 311.5 150.9, 311.1 150.2 Q 310.7 149.6, 310.6 149.4 L 310.6 156.4 L 309.5 156.4 L 309.5 147.9 L 310.9 147.9 " fill="#0000FF"/>
<path class="atom-2" d="M 317.5 149.3 L 320.4 149.3 L 320.4 149.9 L 317.5 149.9 L 317.5 149.3 " fill="#0000FF"/>
<path class="note" d="M 242.2 155.5 L 244.0 155.5 L 244.0 149.1 L 242.0 149.8 L 241.7 149.1 L 244.3 147.9 L 245.2 148.0 L 245.2 155.5 L 246.8 155.5 L 246.8 156.4 L 242.2 156.4 L 242.2 155.5 " fill="#000000"/>
<path class="note" d="M 251.9 152.0 Q 252.7 152.2, 253.1 152.7 Q 253.5 153.3, 253.5 154.1 Q 253.5 154.8, 253.2 155.4 Q 252.8 155.9, 252.2 156.2 Q 251.5 156.5, 250.7 156.5 Q 249.7 156.5, 249.1 156.2 Q 248.4 155.9, 247.9 155.3 L 248.5 154.6 Q 249.1 155.1, 249.5 155.4 Q 250.0 155.6, 250.7 155.6 Q 251.4 155.6, 251.9 155.2 Q 252.4 154.8, 252.4 154.1 Q 252.4 153.2, 251.9 152.8 Q 251.4 152.4, 250.3 152.4 L 249.7 152.4 L 249.7 151.6 L 250.3 151.6 Q 251.2 151.6, 251.7 151.2 Q 252.2 150.8, 252.2 150.0 Q 252.2 149.5, 251.8 149.1 Q 251.4 148.8, 250.7 148.8 Q 250.0 148.8, 249.5 149.1 Q 249.1 149.3, 248.8 149.9 L 247.9 149.5 Q 248.2 148.8, 248.9 148.3 Q 249.7 147.9, 250.7 147.9 Q 251.9 147.9, 252.6 148.4 Q 253.4 149.0, 253.4 150.0 Q 253.4 150.7, 253.0 151.2 Q 252.6 151.7, 251.9 152.0 " fill="#000000"/>
<path class="note" d="M 280.8 142.4 L 282.7 142.4 L 282.7 136.1 L 280.6 136.7 L 280.3 136.0 L 282.9 134.9 L 283.8 135.0 L 283.8 142.4 L 285.4 142.4 L 285.4 143.4 L 280.8 143.4 L 280.8 142.4 " fill="#000000"/>
<path class="note" d="M 292.0 140.5 L 293.0 140.5 L 293.0 141.4 L 292.0 141.4 L 292.0 143.4 L 290.9 143.4 L 290.9 141.4 L 286.5 141.4 L 286.5 140.7 L 290.2 134.9 L 292.0 134.9 L 292.0 140.5 M 287.9 140.5 L 290.9 140.5 L 290.9 135.7 L 287.9 140.5 " fill="#000000"/>
<path class="note" d="M 318.5 161.9 L 320.4 161.9 L 320.4 155.6 L 318.3 156.3 L 318.1 155.5 L 320.7 154.4 L 321.5 154.5 L 321.5 161.9 L 323.2 161.9 L 323.2 162.9 L 318.5 162.9 L 318.5 161.9 " fill="#000000"/>
<path class="note" d="M 327.3 157.6 Q 328.0 157.6, 328.6 157.9 Q 329.3 158.2, 329.6 158.8 Q 329.9 159.4, 329.9 160.2 Q 329.9 161.1, 329.5 161.7 Q 329.1 162.3, 328.4 162.7 Q 327.7 163.0, 326.9 163.0 Q 326.1 163.0, 325.4 162.7 Q 324.7 162.4, 324.2 161.9 L 324.9 161.1 Q 325.3 161.6, 325.9 161.8 Q 326.4 162.0, 327.0 162.0 Q 327.7 162.0, 328.2 161.6 Q 328.8 161.1, 328.8 160.2 Q 328.8 159.3, 328.2 158.9 Q 327.7 158.5, 326.9 158.5 Q 326.1 158.5, 325.3 158.8 L 324.7 158.5 L 325.1 154.4 L 329.4 154.4 L 329.3 155.4 L 326.0 155.4 L 325.8 157.9 Q 326.6 157.6, 327.3 157.6 " fill="#000000"/>
<path class="bond-32 atom-31 atom-32" d="M 387.4,134.0 L 395.2,129.4" style="fill:none;fill-rule:evenodd;stroke:#000000;stroke-width:2.0px;stroke-linecap:butt;stroke-linejoin:miter;stroke-opacity:1"/>
<path class="bond-32 atom-31 atom-32" d="M 395.2,129.4 L 403.0,124.9" style="fill:none;fill-rule:evenodd;stroke:#00CC00;stroke-width:2.0px;stroke-linecap:butt;stroke-linejoin:miter;stroke-opacity:1"/>
<path class="bond-33 atom-31 atom-33" d="M 387.4,134.0 L 378.2,128.6" style="fill:none;fill-rule:evenodd;stroke:#000000;stroke-width:2.0px;stroke-linecap:butt;stroke-linejoin:miter;stroke-opacity:1"/>
<path class="bond-33 atom-31 atom-33" d="M 378.2,128.6 L 369.0,123.3" style="fill:none;fill-rule:evenodd;stroke:#00CC00;stroke-width:2.0px;stroke-linecap:butt;stroke-linejoin:miter;stroke-opacity:1"/>
<path class="atom-1" d="M 403.8 122.9 Q 403.8 120.8, 404.7 119.7 Q 405.7 118.5, 407.6 118.5 Q 409.4 118.5, 410.3 119.8 L 409.5 120.4 Q 408.8 119.5, 407.6 119.5 Q 406.3 119.5, 405.7 120.4 Q 405.0 121.2, 405.0 122.9 Q 405.0 124.6, 405.7 125.4 Q 406.4 126.3, 407.8 126.3 Q 408.7 126.3, 409.8 125.7 L 410.1 126.6 Q 409.7 126.9, 409.0 127.1 Q 408.3 127.2, 407.6 127.2 Q 405.7 127.2, 404.7 126.1 Q 403.8 125.0, 403.8 122.9 " fill="#00CC00"/>
<path class="atom-1" d="M 411.2 118.0 L 412.3 118.0 L 412.3 127.1 L 411.2 127.1 L 411.2 118.0 " fill="#00CC00"/>
<path class="atom-2" d="M 359.7 122.9 Q 359.7 120.8, 360.7 119.7 Q 361.7 118.5, 363.6 118.5 Q 365.3 118.5, 366.3 119.8 L 365.5 120.4 Q 364.8 119.5, 363.6 119.5 Q 362.3 119.5, 361.6 120.4 Q 360.9 121.2, 360.9 122.9 Q 360.9 124.6, 361.6 125.4 Q 362.3 126.3, 363.7 126.3 Q 364.6 126.3, 365.7 125.7 L 366.1 126.6 Q 365.6 126.9, 364.9 127.1 Q 364.3 127.2, 363.5 127.2 Q 361.7 127.2, 360.7 126.1 Q 359.7 125.0, 359.7 122.9 " fill="#00CC00"/>
<path class="atom-2" d="M 367.1 118.0 L 368.2 118.0 L 368.2 127.1 L 367.1 127.1 L 367.1 118.0 " fill="#00CC00"/>
<path class="bond-34 atom-34 atom-35" d="M 450.5,107.9 L 446.0,100.3" style="fill:none;fill-rule:evenodd;stroke:#000000;stroke-width:2.0px;stroke-linecap:butt;stroke-linejoin:miter;stroke-opacity:1"/>
<path class="bond-34 atom-34 atom-35" d="M 446.0,100.3 L 441.6,92.6" style="fill:none;fill-rule:evenodd;stroke:#FF0000;stroke-width:2.0px;stroke-linecap:butt;stroke-linejoin:miter;stroke-opacity:1"/>
<path class="bond-34 atom-34 atom-35" d="M 447.5,109.7 L 443.1,102.0" style="fill:none;fill-rule:evenodd;stroke:#000000;stroke-width:2.0px;stroke-linecap:butt;stroke-linejoin:miter;stroke-opacity:1"/>
<path class="bond-34 atom-34 atom-35" d="M 443.1,102.0 L 438.6,94.3" style="fill:none;fill-rule:evenodd;stroke:#FF0000;stroke-width:2.0px;stroke-linecap:butt;stroke-linejoin:miter;stroke-opacity:1"/>
<path class="bond-35 atom-34 atom-36" d="M 448.5,107.9 L 471.2,107.9" style="fill:none;fill-rule:evenodd;stroke:#000000;stroke-width:2.0px;stroke-linecap:butt;stroke-linejoin:miter;stroke-opacity:1"/>
<path class="bond-36 atom-36 atom-37" d="M 469.3,107.9 L 473.7,115.7" style="fill:none;fill-rule:evenodd;stroke:#000000;stroke-width:2.0px;stroke-linecap:butt;stroke-linejoin:miter;stroke-opacity:1"/>
<path class="bond-36 atom-36 atom-37" d="M 473.7,115.7 L 478.2,123.5" style="fill:none;fill-rule:evenodd;stroke:#FF0000;stroke-width:2.0px;stroke-linecap:butt;stroke-linejoin:miter;stroke-opacity:1"/>
<path class="bond-36 atom-36 atom-37" d="M 472.2,106.2 L 476.7,114.0" style="fill:none;fill-rule:evenodd;stroke:#000000;stroke-width:2.0px;stroke-linecap:butt;stroke-linejoin:miter;stroke-opacity:1"/>
<path class="bond-36 atom-36 atom-37" d="M 476.7,114.0 L 481.2,121.7" style="fill:none;fill-rule:evenodd;stroke:#FF0000;stroke-width:2.0px;stroke-linecap:butt;stroke-linejoin:miter;stroke-opacity:1"/>
<path class="bond-37 atom-36 atom-38" d="M 471.2,107.9 L 475.3,100.8" style="fill:none;fill-rule:evenodd;stroke:#000000;stroke-width:2.0px;stroke-linecap:butt;stroke-linejoin:miter;stroke-opacity:1"/>
<path class="bond-37 atom-36 atom-38" d="M 475.3,100.8 L 479.5,93.7" style="fill:none;fill-rule:evenodd;stroke:#00CC00;stroke-width:2.0px;stroke-linecap:butt;stroke-linejoin:miter;stroke-opacity:1"/>
<path class="bond-38 atom-34 atom-39" d="M 448.5,107.9 L 443.5,116.7" style="fill:none;fill-rule:evenodd;stroke:#000000;stroke-width:2.0px;stroke-linecap:butt;stroke-linejoin:miter;stroke-opacity:1"/>
<path class="bond-38 atom-34 atom-39" d="M 443.5,116.7 L 438.4,125.4" style="fill:none;fill-rule:evenodd;stroke:#00CC00;stroke-width:2.0px;stroke-linecap:butt;stroke-linejoin:miter;stroke-opacity:1"/>
<path class="atom-1" d="M 433.2 88.3 Q 433.2 86.2, 434.2 85.1 Q 435.2 84.0, 437.1 84.0 Q 439.0 84.0, 440.0 85.1 Q 441.0 86.2, 441.0 88.3 Q 441.0 90.3, 440.0 91.5 Q 439.0 92.7, 437.1 92.7 Q 435.3 92.7, 434.2 91.5 Q 433.2 90.4, 433.2 88.3 M 437.1 91.7 Q 438.4 91.7, 439.1 90.9 Q 439.8 90.0, 439.8 88.3 Q 439.8 86.6, 439.1 85.8 Q 438.4 84.9, 437.1 84.9 Q 435.8 84.9, 435.1 85.8 Q 434.4 86.6, 434.4 88.3 Q 434.4 90.0, 435.1 90.9 Q 435.8 91.7, 437.1 91.7 " fill="#FF0000"/>
<path class="atom-3" d="M 478.7 127.7 Q 478.7 125.6, 479.7 124.5 Q 480.7 123.3, 482.6 123.3 Q 484.5 123.3, 485.5 124.5 Q 486.5 125.6, 486.5 127.7 Q 486.5 129.7, 485.5 130.9 Q 484.4 132.1, 482.6 132.1 Q 480.7 132.1, 479.7 130.9 Q 478.7 129.7, 478.7 127.7 M 482.6 131.1 Q 483.9 131.1, 484.6 130.2 Q 485.3 129.4, 485.3 127.7 Q 485.3 126.0, 484.6 125.1 Q 483.9 124.3, 482.6 124.3 Q 481.3 124.3, 480.6 125.1 Q 479.9 126.0, 479.9 127.7 Q 479.9 129.4, 480.6 130.2 Q 481.3 131.1, 482.6 131.1 " fill="#FF0000"/>
<path class="atom-4" d="M 479.3 88.6 Q 479.3 86.4, 480.3 85.3 Q 481.3 84.2, 483.2 84.2 Q 484.9 84.2, 485.9 85.5 L 485.1 86.1 Q 484.4 85.2, 483.2 85.2 Q 481.9 85.2, 481.2 86.1 Q 480.5 86.9, 480.5 88.6 Q 480.5 90.2, 481.2 91.1 Q 481.9 92.0, 483.3 92.0 Q 484.2 92.0, 485.3 91.4 L 485.7 92.3 Q 485.2 92.6, 484.6 92.8 Q 483.9 92.9, 483.1 92.9 Q 481.3 92.9, 480.3 91.8 Q 479.3 90.7, 479.3 88.6 " fill="#00CC00"/>
<path class="atom-4" d="M 486.7 83.7 L 487.8 83.7 L 487.8 92.8 L 486.7 92.8 L 486.7 83.7 " fill="#00CC00"/>
<path class="atom-5" d="M 429.2 127.9 Q 429.2 125.8, 430.1 124.7 Q 431.1 123.6, 433.0 123.6 Q 434.8 123.6, 435.7 124.8 L 434.9 125.5 Q 434.2 124.6, 433.0 124.6 Q 431.7 124.6, 431.1 125.4 Q 430.4 126.3, 430.4 127.9 Q 430.4 129.6, 431.1 130.5 Q 431.8 131.3, 433.2 131.3 Q 434.1 131.3, 435.2 130.8 L 435.5 131.7 Q 435.1 132.0, 434.4 132.1 Q 433.7 132.3, 433.0 132.3 Q 431.1 132.3, 430.1 131.2 Q 429.2 130.0, 429.2 127.9 " fill="#00CC00"/>
<path class="atom-5" d="M 436.6 123.1 L 437.7 123.1 L 437.7 132.2 L 436.6 132.2 L 436.6 123.1 " fill="#00CC00"/>
<path class="bond-16 atom-16 atom-17" d="M 673.4,180.8 L 679.0,183.9 L 653.9,198.9 L 653.8,192.5 Z" style="fill:#FFFFAA;fill-rule:evenodd;fill-opacity:1;stroke:#FFFFAA;stroke-width:0.0px;stroke-linecap:butt;stroke-linejoin:miter;stroke-opacity:1;"/>
<path class="bond-30 atom-16 atom-25" d="M 633.8,181.4 L 653.8,192.5 L 653.9,198.9 L 628.3,184.7 Z" style="fill:#FFFFAA;fill-rule:evenodd;fill-opacity:1;stroke:#FFFFAA;stroke-width:0.0px;stroke-linecap:butt;stroke-linejoin:miter;stroke-opacity:1;"/>
<path class="bond-17 atom-17 atom-18" d="M 675.7,156.3 L 678.5,157.9 L 679.0,183.9 L 673.4,180.8 L 673.0,158.0 Z" style="fill:#FFFFAA;fill-rule:evenodd;fill-opacity:1;stroke:#FFFFAA;stroke-width:0.0px;stroke-linecap:butt;stroke-linejoin:miter;stroke-opacity:1;"/>
<path class="bond-18 atom-18 atom-19" d="M 695.3,141.4 L 700.9,144.5 L 678.5,157.9 L 675.7,156.3 L 675.7,153.1 Z" style="fill:#FFFFAA;fill-rule:evenodd;fill-opacity:1;stroke:#FFFFAA;stroke-width:0.0px;stroke-linecap:butt;stroke-linejoin:miter;stroke-opacity:1;"/>
<path class="bond-31 atom-18 atom-23" d="M 655.7,142.0 L 675.7,153.1 L 675.7,156.3 L 673.0,158.0 L 653.0,146.9 L 653.0,143.6 Z" style="fill:#FFFFAA;fill-rule:evenodd;fill-opacity:1;stroke:#FFFFAA;stroke-width:0.0px;stroke-linecap:butt;stroke-linejoin:miter;stroke-opacity:1;"/>
<path class="bond-19 atom-19 atom-20" d="M 700.4,115.2 L 700.9,144.5 L 695.3,141.4 L 694.9,118.5 Z" style="fill:#FFFFAA;fill-rule:evenodd;fill-opacity:1;stroke:#FFFFAA;stroke-width:0.0px;stroke-linecap:butt;stroke-linejoin:miter;stroke-opacity:1;"/>
<path class="bond-20 atom-20 atom-21" d="M 674.9,101.0 L 700.4,115.2 L 694.9,118.5 L 675.0,107.4 Z" style="fill:#FFFFAA;fill-rule:evenodd;fill-opacity:1;stroke:#FFFFAA;stroke-width:0.0px;stroke-linecap:butt;stroke-linejoin:miter;stroke-opacity:1;"/>
<path class="bond-21 atom-21 atom-22" d="M 674.9,101.0 L 675.0,107.4 L 655.4,119.2 L 649.8,116.0 Z" style="fill:#FFFFAA;fill-rule:evenodd;fill-opacity:1;stroke:#FFFFAA;stroke-width:0.0px;stroke-linecap:butt;stroke-linejoin:miter;stroke-opacity:1;"/>
<path class="bond-22 atom-22 atom-23" d="M 649.8,116.0 L 655.4,119.2 L 655.7,142.0 L 653.0,143.6 L 650.2,142.1 Z" style="fill:#FFFFAA;fill-rule:evenodd;fill-opacity:1;stroke:#FFFFAA;stroke-width:0.0px;stroke-linecap:butt;stroke-linejoin:miter;stroke-opacity:1;"/>
<path class="bond-23 atom-23 atom-24" d="M 650.2,142.1 L 653.0,143.6 L 653.0,146.9 L 633.4,158.6 L 630.6,157.0 L 630.6,153.8 Z" style="fill:#FFFFAA;fill-rule:evenodd;fill-opacity:1;stroke:#FFFFAA;stroke-width:0.0px;stroke-linecap:butt;stroke-linejoin:miter;stroke-opacity:1;"/>
<path class="bond-24 atom-24 atom-25" d="M 630.6,157.0 L 633.4,158.6 L 633.8,181.4 L 628.3,184.7 L 627.9,158.7 Z" style="fill:#FFFFAA;fill-rule:evenodd;fill-opacity:1;stroke:#FFFFAA;stroke-width:0.0px;stroke-linecap:butt;stroke-linejoin:miter;stroke-opacity:1;"/>
<path class="bond-25 atom-24 atom-26" d="M 610.6,142.7 L 630.6,153.8 L 630.6,157.0 L 627.9,158.7 L 605.1,146.0 Z" style="fill:#FFFFAA;fill-rule:evenodd;fill-opacity:1;stroke:#FFFFAA;stroke-width:0.0px;stroke-linecap:butt;stroke-linejoin:miter;stroke-opacity:1;"/>
<path class="bond-26 atom-26 atom-27" d="M 610.2,118.3 L 610.6,142.7 L 605.1,146.0 L 604.7,118.4 Z" style="fill:#FFFFAA;fill-rule:evenodd;fill-opacity:1;stroke:#FFFFAA;stroke-width:0.0px;stroke-linecap:butt;stroke-linejoin:miter;stroke-opacity:1;"/>
<path class="bond-28 atom-28 atom-29" d="M 575.5,149.0 L 586.9,155.3 L 584.2,160.2 L 572.8,153.8 Z" style="fill:#FFCC99;fill-rule:evenodd;fill-opacity:1;stroke:#FFCC99;stroke-width:0.0px;stroke-linecap:butt;stroke-linejoin:miter;stroke-opacity:1;"/>
<path class="bond-29 atom-29 atom-30" d="M 541.4,130.0 L 575.5,149.0 L 572.8,153.8 L 538.7,134.9 Z" style="fill:#FFCC99;fill-rule:evenodd;fill-opacity:1;stroke:#FFCC99;stroke-width:0.0px;stroke-linecap:butt;stroke-linejoin:miter;stroke-opacity:1;"/>
<ellipse cx="653.8" cy="195.7" rx="5.2" ry="5.2" class="atom-16" style="fill:#FFFFAA;fill-rule:evenodd;stroke:#FFFFAA;stroke-width:1.0px;stroke-linecap:butt;stroke-linejoin:miter;stroke-opacity:1"/>
<ellipse cx="676.2" cy="182.3" rx="5.2" ry="5.2" class="atom-17" style="fill:#FFFFAA;fill-rule:evenodd;stroke:#FFFFAA;stroke-width:1.0px;stroke-linecap:butt;stroke-linejoin:miter;stroke-opacity:1"/>
<ellipse cx="675.7" cy="156.3" rx="5.2" ry="5.2" class="atom-18" style="fill:#FFFFAA;fill-rule:evenodd;stroke:#FFFFAA;stroke-width:1.0px;stroke-linecap:butt;stroke-linejoin:miter;stroke-opacity:1"/>
<ellipse cx="698.1" cy="142.9" rx="5.2" ry="5.2" class="atom-19" style="fill:#FFFFAA;fill-rule:evenodd;stroke:#FFFFAA;stroke-width:1.0px;stroke-linecap:butt;stroke-linejoin:miter;stroke-opacity:1"/>
<ellipse cx="697.7" cy="116.9" rx="5.2" ry="6.0" class="atom-20" style="fill:#FFFFAA;fill-rule:evenodd;stroke:#FFFFAA;stroke-width:1.0px;stroke-linecap:butt;stroke-linejoin:miter;stroke-opacity:1"/>
<ellipse cx="674.9" cy="104.2" rx="5.2" ry="5.2" class="atom-21" style="fill:#FFFFAA;fill-rule:evenodd;stroke:#FFFFAA;stroke-width:1.0px;stroke-linecap:butt;stroke-linejoin:miter;stroke-opacity:1"/>
<ellipse cx="652.6" cy="117.6" rx="5.2" ry="5.2" class="atom-22" style="fill:#FFFFAA;fill-rule:evenodd;stroke:#FFFFAA;stroke-width:1.0px;stroke-linecap:butt;stroke-linejoin:miter;stroke-opacity:1"/>
<ellipse cx="653.0" cy="143.6" rx="5.2" ry="5.2" class="atom-23" style="fill:#FFFFAA;fill-rule:evenodd;stroke:#FFFFAA;stroke-width:1.0px;stroke-linecap:butt;stroke-linejoin:miter;stroke-opacity:1"/>
<ellipse cx="630.6" cy="157.0" rx="5.2" ry="5.2" class="atom-24" style="fill:#FFFFAA;fill-rule:evenodd;stroke:#FFFFAA;stroke-width:1.0px;stroke-linecap:butt;stroke-linejoin:miter;stroke-opacity:1"/>
<ellipse cx="631.1" cy="183.1" rx="5.2" ry="5.2" class="atom-25" style="fill:#FFFFAA;fill-rule:evenodd;stroke:#FFFFAA;stroke-width:1.0px;stroke-linecap:butt;stroke-linejoin:miter;stroke-opacity:1"/>
<ellipse cx="607.9" cy="144.4" rx="5.2" ry="5.2" class="atom-26" style="fill:#FFFFAA;fill-rule:evenodd;stroke:#FFFFAA;stroke-width:1.0px;stroke-linecap:butt;stroke-linejoin:miter;stroke-opacity:1"/>
<ellipse cx="607.5" cy="118.4" rx="5.5" ry="6.1" class="atom-27" style="fill:#FFFFAA;fill-rule:evenodd;stroke:#FFFFAA;stroke-width:1.0px;stroke-linecap:butt;stroke-linejoin:miter;stroke-opacity:1"/>
<ellipse cx="585.5" cy="157.7" rx="5.2" ry="6.0" class="atom-28" style="fill:#FFCC99;fill-rule:evenodd;stroke:#FFCC99;stroke-width:1.0px;stroke-linecap:butt;stroke-linejoin:miter;stroke-opacity:1"/>
<ellipse cx="565.4" cy="145.1" rx="8.3" ry="6.0" class="atom-29" style="fill:#FFCC99;fill-rule:evenodd;stroke:#FFCC99;stroke-width:1.0px;stroke-linecap:butt;stroke-linejoin:miter;stroke-opacity:1"/>
<ellipse cx="542.2" cy="132.4" rx="7.7" ry="6.0" class="atom-30" style="fill:#FFCC99;fill-rule:evenodd;stroke:#FFCC99;stroke-width:1.0px;stroke-linecap:butt;stroke-linejoin:miter;stroke-opacity:1"/>
<path class="bond-16 atom-16 atom-17" d="M 653.8,195.7 L 676.2,182.3" style="fill:none;fill-rule:evenodd;stroke:#000000;stroke-width:2.0px;stroke-linecap:butt;stroke-linejoin:miter;stroke-opacity:1"/>
<path class="bond-16 atom-16 atom-17" d="M 653.7,191.2 L 672.2,180.2" style="fill:none;fill-rule:evenodd;stroke:#000000;stroke-width:2.0px;stroke-linecap:butt;stroke-linejoin:miter;stroke-opacity:1"/>
<path class="bond-17 atom-17 atom-18" d="M 676.2,182.3 L 675.7,156.3" style="fill:none;fill-rule:evenodd;stroke:#000000;stroke-width:2.0px;stroke-linecap:butt;stroke-linejoin:miter;stroke-opacity:1"/>
<path class="bond-18 atom-18 atom-19" d="M 675.7,156.3 L 698.1,142.9" style="fill:none;fill-rule:evenodd;stroke:#000000;stroke-width:2.0px;stroke-linecap:butt;stroke-linejoin:miter;stroke-opacity:1"/>
<path class="bond-18 atom-18 atom-19" d="M 675.7,151.8 L 694.1,140.7" style="fill:none;fill-rule:evenodd;stroke:#000000;stroke-width:2.0px;stroke-linecap:butt;stroke-linejoin:miter;stroke-opacity:1"/>
<path class="bond-19 atom-19 atom-20" d="M 698.1,142.9 L 697.9,132.5" style="fill:none;fill-rule:evenodd;stroke:#000000;stroke-width:2.0px;stroke-linecap:butt;stroke-linejoin:miter;stroke-opacity:1"/>
<path class="bond-19 atom-19 atom-20" d="M 697.9,132.5 L 697.8,122.0" style="fill:none;fill-rule:evenodd;stroke:#0000FF;stroke-width:2.0px;stroke-linecap:butt;stroke-linejoin:miter;stroke-opacity:1"/>
<path class="bond-20 atom-20 atom-21" d="M 693.6,114.6 L 684.3,109.4" style="fill:none;fill-rule:evenodd;stroke:#0000FF;stroke-width:2.0px;stroke-linecap:butt;stroke-linejoin:miter;stroke-opacity:1"/>
<path class="bond-20 atom-20 atom-21" d="M 684.3,109.4 L 674.9,104.2" style="fill:none;fill-rule:evenodd;stroke:#000000;stroke-width:2.0px;stroke-linecap:butt;stroke-linejoin:miter;stroke-opacity:1"/>
<path class="bond-20 atom-20 atom-21" d="M 691.7,118.0 L 683.3,113.4" style="fill:none;fill-rule:evenodd;stroke:#0000FF;stroke-width:2.0px;stroke-linecap:butt;stroke-linejoin:miter;stroke-opacity:1"/>
<path class="bond-20 atom-20 atom-21" d="M 683.3,113.4 L 675.0,108.7" style="fill:none;fill-rule:evenodd;stroke:#000000;stroke-width:2.0px;stroke-linecap:butt;stroke-linejoin:miter;stroke-opacity:1"/>
<path class="bond-21 atom-21 atom-22" d="M 674.9,104.2 L 652.6,117.6" style="fill:none;fill-rule:evenodd;stroke:#000000;stroke-width:2.0px;stroke-linecap:butt;stroke-linejoin:miter;stroke-opacity:1"/>
<path class="bond-22 atom-22 atom-23" d="M 652.6,117.6 L 653.0,143.6" style="fill:none;fill-rule:evenodd;stroke:#000000;stroke-width:2.0px;stroke-linecap:butt;stroke-linejoin:miter;stroke-opacity:1"/>
<path class="bond-22 atom-22 atom-23" d="M 656.5,119.8 L 656.9,141.3" style="fill:none;fill-rule:evenodd;stroke:#000000;stroke-width:2.0px;stroke-linecap:butt;stroke-linejoin:miter;stroke-opacity:1"/>
<path class="bond-23 atom-23 atom-24" d="M 653.0,143.6 L 630.6,157.0" style="fill:none;fill-rule:evenodd;stroke:#000000;stroke-width:2.0px;stroke-linecap:butt;stroke-linejoin:miter;stroke-opacity:1"/>
<path class="bond-24 atom-24 atom-25" d="M 630.6,157.0 L 631.1,183.1" style="fill:none;fill-rule:evenodd;stroke:#000000;stroke-width:2.0px;stroke-linecap:butt;stroke-linejoin:miter;stroke-opacity:1"/>
<path class="bond-24 atom-24 atom-25" d="M 634.6,159.2 L 634.9,180.7" style="fill:none;fill-rule:evenodd;stroke:#000000;stroke-width:2.0px;stroke-linecap:butt;stroke-linejoin:miter;stroke-opacity:1"/>
<path class="bond-25 atom-24 atom-26" d="M 630.6,157.0 L 607.9,144.4" style="fill:none;fill-rule:evenodd;stroke:#000000;stroke-width:2.0px;stroke-linecap:butt;stroke-linejoin:miter;stroke-opacity:1"/>
<path class="bond-26 atom-26 atom-27" d="M 609.9,145.5 L 609.7,134.5" style="fill:none;fill-rule:evenodd;stroke:#000000;stroke-width:2.0px;stroke-linecap:butt;stroke-linejoin:miter;stroke-opacity:1"/>
<path class="bond-26 atom-26 atom-27" d="M 609.7,134.5 L 609.5,123.6" style="fill:none;fill-rule:evenodd;stroke:#FF0000;stroke-width:2.0px;stroke-linecap:butt;stroke-linejoin:miter;stroke-opacity:1"/>
<path class="bond-26 atom-26 atom-27" d="M 606.0,145.5 L 605.8,134.6" style="fill:none;fill-rule:evenodd;stroke:#000000;stroke-width:2.0px;stroke-linecap:butt;stroke-linejoin:miter;stroke-opacity:1"/>
<path class="bond-26 atom-26 atom-27" d="M 605.8,134.6 L 605.6,123.6" style="fill:none;fill-rule:evenodd;stroke:#FF0000;stroke-width:2.0px;stroke-linecap:butt;stroke-linejoin:miter;stroke-opacity:1"/>
<path class="bond-27 atom-26 atom-28" d="M 607.9,144.4 L 598.8,149.8" style="fill:none;fill-rule:evenodd;stroke:#000000;stroke-width:2.0px;stroke-linecap:butt;stroke-linejoin:miter;stroke-opacity:1"/>
<path class="bond-27 atom-26 atom-28" d="M 598.8,149.8 L 589.6,155.3" style="fill:none;fill-rule:evenodd;stroke:#0000FF;stroke-width:2.0px;stroke-linecap:butt;stroke-linejoin:miter;stroke-opacity:1"/>
<path class="bond-28 atom-28 atom-29" d="M 580.5,157.2 L 565.9,149.1" style="fill:none;fill-rule:evenodd;stroke:#0000FF;stroke-width:2.0px;stroke-linecap:butt;stroke-linejoin:miter;stroke-opacity:1"/>
<path class="bond-28 atom-28 atom-29" d="M 582.4,153.8 L 567.8,145.6" style="fill:none;fill-rule:evenodd;stroke:#0000FF;stroke-width:2.0px;stroke-linecap:butt;stroke-linejoin:miter;stroke-opacity:1"/>
<path class="bond-29 atom-29 atom-30" d="M 557.8,144.5 L 543.2,136.4" style="fill:none;fill-rule:evenodd;stroke:#0000FF;stroke-width:2.0px;stroke-linecap:butt;stroke-linejoin:miter;stroke-opacity:1"/>
<path class="bond-29 atom-29 atom-30" d="M 559.7,141.1 L 545.0,133.0" style="fill:none;fill-rule:evenodd;stroke:#0000FF;stroke-width:2.0px;stroke-linecap:butt;stroke-linejoin:miter;stroke-opacity:1"/>
<path class="bond-30 atom-25 atom-16" d="M 631.1,183.1 L 653.8,195.7" style="fill:none;fill-rule:evenodd;stroke:#000000;stroke-width:2.0px;stroke-linecap:butt;stroke-linejoin:miter;stroke-opacity:1"/>
<path class="bond-31 atom-23 atom-18" d="M 653.0,143.6 L 675.7,156.3" style="fill:none;fill-rule:evenodd;stroke:#000000;stroke-width:2.0px;stroke-linecap:butt;stroke-linejoin:miter;stroke-opacity:1"/>
<path class="atom-4" d="M 695.8 112.6 L 698.6 117.1 Q 698.9 117.6, 699.3 118.4 Q 699.7 119.2, 699.8 119.2 L 699.8 112.6 L 700.9 112.6 L 700.9 121.1 L 699.7 121.1 L 696.7 116.2 Q 696.4 115.6, 696.0 115.0 Q 695.7 114.3, 695.6 114.1 L 695.6 121.1 L 694.4 121.1 L 694.4 112.6 L 695.8 112.6 " fill="#0000FF"/>
<path class="atom-11" d="M 603.6 118.4 Q 603.6 116.3, 604.6 115.2 Q 605.6 114.0, 607.5 114.0 Q 609.4 114.0, 610.4 115.2 Q 611.4 116.3, 611.4 118.4 Q 611.4 120.4, 610.4 121.6 Q 609.3 122.8, 607.5 122.8 Q 605.6 122.8, 604.6 121.6 Q 603.6 120.4, 603.6 118.4 M 607.5 121.8 Q 608.8 121.8, 609.5 120.9 Q 610.2 120.1, 610.2 118.4 Q 610.2 116.7, 609.5 115.8 Q 608.8 115.0, 607.5 115.0 Q 606.2 115.0, 605.5 115.8 Q 604.8 116.7, 604.8 118.4 Q 604.8 120.1, 605.5 120.9 Q 606.2 121.8, 607.5 121.8 " fill="#FF0000"/>
<path class="atom-12" d="M 583.7 153.5 L 586.5 158.0 Q 586.7 158.4, 587.2 159.2 Q 587.6 160.0, 587.6 160.1 L 587.6 153.5 L 588.8 153.5 L 588.8 162.0 L 587.6 162.0 L 584.6 157.1 Q 584.3 156.5, 583.9 155.8 Q 583.5 155.2, 583.4 155.0 L 583.4 162.0 L 582.3 162.0 L 582.3 153.5 L 583.7 153.5 " fill="#0000FF"/>
<path class="atom-13" d="M 560.9 140.8 L 563.7 145.3 Q 564.0 145.8, 564.4 146.6 Q 564.9 147.4, 564.9 147.4 L 564.9 140.8 L 566.0 140.8 L 566.0 149.3 L 564.8 149.3 L 561.9 144.4 Q 561.5 143.8, 561.1 143.2 Q 560.8 142.5, 560.7 142.3 L 560.7 149.3 L 559.6 149.3 L 559.6 140.8 L 560.9 140.8 " fill="#0000FF"/>
<path class="atom-13" d="M 567.6 142.4 L 569.1 142.4 L 569.1 140.8 L 569.8 140.8 L 569.8 142.4 L 571.3 142.4 L 571.3 142.9 L 569.8 142.9 L 569.8 144.5 L 569.1 144.5 L 569.1 142.9 L 567.6 142.9 L 567.6 142.4 " fill="#0000FF"/>
<path class="atom-14" d="M 538.2 128.2 L 540.9 132.7 Q 541.2 133.1, 541.7 133.9 Q 542.1 134.7, 542.1 134.8 L 542.1 128.2 L 543.3 128.2 L 543.3 136.7 L 542.1 136.7 L 539.1 131.8 Q 538.8 131.2, 538.4 130.5 Q 538.0 129.9, 537.9 129.7 L 537.9 136.7 L 536.8 136.7 L 536.8 128.2 L 538.2 128.2 " fill="#0000FF"/>
<path class="atom-14" d="M 544.8 129.6 L 547.7 129.6 L 547.7 130.2 L 544.8 130.2 L 544.8 129.6 " fill="#0000FF"/>
<path class="note" d="M 654.2 203.3 Q 654.9 203.3, 655.5 203.7 Q 656.1 204.0, 656.5 204.6 Q 656.8 205.2, 656.8 206.0 Q 656.8 206.8, 656.4 207.5 Q 656.0 208.1, 655.3 208.4 Q 654.6 208.7, 653.8 208.7 Q 653.0 208.7, 652.3 208.4 Q 651.6 208.2, 651.1 207.6 L 651.8 206.9 Q 652.2 207.3, 652.7 207.5 Q 653.3 207.8, 653.8 207.8 Q 654.6 207.8, 655.1 207.3 Q 655.6 206.8, 655.6 206.0 Q 655.6 205.1, 655.1 204.7 Q 654.6 204.2, 653.8 204.2 Q 653.0 204.2, 652.2 204.6 L 651.5 204.2 L 651.9 200.2 L 656.3 200.2 L 656.2 201.1 L 652.9 201.1 L 652.7 203.6 Q 653.4 203.3, 654.2 203.3 " fill="#000000"/>
<path class="note" d="M 680.3 183.4 Q 681.1 183.4, 681.7 183.8 Q 682.2 184.1, 682.6 184.7 Q 682.9 185.3, 682.9 186.0 Q 682.9 186.8, 682.5 187.5 Q 682.2 188.1, 681.5 188.5 Q 680.9 188.8, 680.0 188.8 Q 678.5 188.8, 677.8 187.8 Q 677.0 186.8, 677.0 184.8 Q 677.0 182.5, 677.9 181.3 Q 678.9 180.2, 680.7 180.2 Q 681.2 180.2, 681.7 180.3 Q 682.1 180.4, 682.6 180.7 L 682.1 181.5 Q 681.5 181.1, 680.7 181.1 Q 679.5 181.1, 678.9 181.9 Q 678.3 182.7, 678.2 184.3 Q 678.7 183.9, 679.2 183.7 Q 679.7 183.4, 680.3 183.4 M 680.1 187.8 Q 680.5 187.8, 680.9 187.6 Q 681.3 187.4, 681.5 187.0 Q 681.7 186.5, 681.7 186.0 Q 681.7 185.3, 681.3 184.8 Q 680.9 184.4, 680.1 184.4 Q 679.6 184.4, 679.1 184.6 Q 678.6 184.8, 678.2 185.2 Q 678.3 186.6, 678.7 187.2 Q 679.2 187.8, 680.1 187.8 " fill="#000000"/>
<path class="note" d="M 685.0 157.3 L 680.5 157.3 L 680.5 156.3 L 686.1 156.3 L 686.1 157.1 L 682.7 164.8 L 681.6 164.8 L 685.0 157.3 " fill="#000000"/>
<path class="note" d="M 703.2 144.8 Q 704.0 145.2, 704.4 145.7 Q 704.9 146.2, 704.9 147.0 Q 704.9 147.7, 704.5 148.3 Q 704.1 148.8, 703.5 149.1 Q 702.8 149.4, 701.9 149.4 Q 700.5 149.4, 699.7 148.8 Q 698.9 148.1, 698.9 147.0 Q 698.9 146.3, 699.2 145.8 Q 699.6 145.3, 700.3 144.9 Q 699.8 144.6, 699.5 144.1 Q 699.2 143.6, 699.2 142.9 Q 699.2 141.9, 699.9 141.3 Q 700.6 140.8, 701.9 140.8 Q 703.1 140.8, 703.8 141.3 Q 704.6 141.9, 704.6 142.9 Q 704.6 143.5, 704.2 144.0 Q 703.9 144.5, 703.2 144.8 M 701.9 141.7 Q 701.2 141.7, 700.8 142.0 Q 700.4 142.3, 700.4 142.9 Q 700.4 143.4, 700.7 143.7 Q 700.9 143.9, 701.3 144.1 Q 701.7 144.3, 702.4 144.5 Q 702.9 144.2, 703.1 143.8 Q 703.4 143.4, 703.4 142.9 Q 703.4 142.3, 703.0 142.0 Q 702.6 141.7, 701.9 141.7 M 701.9 148.5 Q 702.7 148.5, 703.2 148.1 Q 703.7 147.7, 703.7 147.0 Q 703.7 146.5, 703.4 146.2 Q 703.2 146.0, 702.8 145.8 Q 702.4 145.6, 701.7 145.4 L 701.2 145.2 Q 700.6 145.6, 700.3 146.0 Q 700.1 146.4, 700.1 147.0 Q 700.1 147.7, 700.6 148.1 Q 701.1 148.5, 701.9 148.5 " fill="#000000"/>
<path class="note" d="M 706.3 112.5 Q 707.8 112.5, 708.5 113.5 Q 709.3 114.5, 709.3 116.5 Q 709.3 118.8, 708.3 120.0 Q 707.4 121.1, 705.6 121.1 Q 705.1 121.1, 704.6 121.0 Q 704.2 120.9, 703.7 120.6 L 704.2 119.8 Q 704.8 120.2, 705.6 120.2 Q 706.8 120.2, 707.4 119.4 Q 708.0 118.6, 708.1 117.0 Q 707.6 117.4, 707.1 117.6 Q 706.6 117.9, 706.0 117.9 Q 705.2 117.9, 704.6 117.5 Q 704.1 117.2, 703.7 116.6 Q 703.4 116.0, 703.4 115.3 Q 703.4 114.5, 703.8 113.8 Q 704.1 113.2, 704.8 112.8 Q 705.4 112.5, 706.3 112.5 M 704.6 115.3 Q 704.6 116.0, 705.0 116.5 Q 705.4 116.9, 706.2 116.9 Q 706.7 116.9, 707.2 116.7 Q 707.7 116.5, 708.1 116.1 Q 708.0 114.7, 707.6 114.1 Q 707.1 113.5, 706.2 113.5 Q 705.8 113.5, 705.4 113.7 Q 705.0 113.9, 704.8 114.3 Q 704.6 114.8, 704.6 115.3 " fill="#000000"/>
<path class="note" d="M 669.1 98.9 L 670.9 98.9 L 670.9 92.6 L 668.9 93.2 L 668.6 92.5 L 671.2 91.3 L 672.0 91.5 L 672.0 98.9 L 673.7 98.9 L 673.7 99.8 L 669.1 99.8 L 669.1 98.9 " fill="#000000"/>
<path class="note" d="M 677.9 99.9 Q 676.3 99.9, 675.5 98.8 Q 674.8 97.6, 674.8 95.6 Q 674.8 93.5, 675.5 92.4 Q 676.3 91.3, 677.9 91.3 Q 679.4 91.3, 680.2 92.4 Q 681.0 93.5, 681.0 95.6 Q 681.0 97.6, 680.2 98.8 Q 679.4 99.9, 677.9 99.9 M 677.9 99.0 Q 678.8 99.0, 679.3 98.1 Q 679.8 97.3, 679.8 95.6 Q 679.8 93.9, 679.3 93.1 Q 678.8 92.2, 677.9 92.2 Q 677.0 92.2, 676.4 93.1 Q 676.0 93.9, 676.0 95.6 Q 676.0 97.3, 676.4 98.1 Q 677.0 99.0, 677.9 99.0 " fill="#000000"/>
<path class="note" d="M 639.8 116.7 L 641.7 116.7 L 641.7 110.4 L 639.7 111.0 L 639.4 110.3 L 642.0 109.1 L 642.8 109.3 L 642.8 116.7 L 644.5 116.7 L 644.5 117.6 L 639.8 117.6 L 639.8 116.7 " fill="#000000"/>
<path class="note" d="M 646.0 116.7 L 647.8 116.7 L 647.8 110.4 L 645.8 111.0 L 645.5 110.3 L 648.1 109.1 L 648.9 109.3 L 648.9 116.7 L 650.6 116.7 L 650.6 117.6 L 646.0 117.6 L 646.0 116.7 " fill="#000000"/>
<path class="note" d="M 636.1 140.6 L 638.0 140.6 L 638.0 134.3 L 636.0 134.9 L 635.7 134.2 L 638.3 133.1 L 639.1 133.2 L 639.1 140.6 L 640.8 140.6 L 640.8 141.6 L 636.1 141.6 L 636.1 140.6 " fill="#000000"/>
<path class="note" d="M 641.9 134.7 Q 642.2 133.9, 642.9 133.5 Q 643.6 133.0, 644.7 133.0 Q 646.0 133.0, 646.7 133.7 Q 647.4 134.4, 647.4 135.7 Q 647.4 136.9, 646.5 138.1 Q 645.5 139.3, 643.6 140.6 L 647.5 140.6 L 647.5 141.6 L 641.8 141.6 L 641.8 140.8 Q 643.4 139.7, 644.3 138.8 Q 645.3 138.0, 645.7 137.2 Q 646.2 136.5, 646.2 135.7 Q 646.2 134.9, 645.8 134.4 Q 645.4 134.0, 644.7 134.0 Q 644.0 134.0, 643.5 134.3 Q 643.1 134.5, 642.8 135.2 L 641.9 134.7 " fill="#000000"/>
<path class="note" d="M 627.6 164.4 Q 628.5 164.7, 628.9 165.2 Q 629.3 165.7, 629.3 166.6 Q 629.3 167.3, 628.9 167.8 Q 628.6 168.4, 627.9 168.7 Q 627.2 169.0, 626.4 169.0 Q 625.5 169.0, 624.8 168.7 Q 624.1 168.4, 623.6 167.7 L 624.3 167.0 Q 624.8 167.6, 625.2 167.8 Q 625.7 168.1, 626.4 168.1 Q 627.1 168.1, 627.6 167.6 Q 628.1 167.2, 628.1 166.6 Q 628.1 165.7, 627.6 165.3 Q 627.1 164.9, 626.1 164.9 L 625.5 164.9 L 625.5 164.1 L 626.0 164.1 Q 626.9 164.0, 627.4 163.7 Q 627.9 163.2, 627.9 162.5 Q 627.9 161.9, 627.5 161.6 Q 627.1 161.3, 626.4 161.3 Q 625.7 161.3, 625.2 161.5 Q 624.8 161.8, 624.5 162.4 L 623.7 162.0 Q 623.9 161.3, 624.7 160.8 Q 625.4 160.3, 626.4 160.3 Q 627.6 160.3, 628.4 160.9 Q 629.1 161.5, 629.1 162.5 Q 629.1 163.2, 628.7 163.7 Q 628.3 164.2, 627.6 164.4 " fill="#000000"/>
<path class="note" d="M 629.0 184.5 L 630.0 184.5 L 630.0 185.4 L 629.0 185.4 L 629.0 187.4 L 627.8 187.4 L 627.8 185.4 L 623.5 185.4 L 623.5 184.7 L 627.2 178.9 L 629.0 178.9 L 629.0 184.5 M 624.8 184.5 L 627.8 184.5 L 627.8 179.7 L 624.8 184.5 " fill="#000000"/>
<path class="note" d="M 612.5 137.3 Q 612.8 136.5, 613.6 136.1 Q 614.3 135.6, 615.3 135.6 Q 616.6 135.6, 617.3 136.3 Q 618.0 137.0, 618.0 138.2 Q 618.0 139.5, 617.1 140.7 Q 616.2 141.8, 614.3 143.2 L 618.2 143.2 L 618.2 144.2 L 612.5 144.2 L 612.5 143.4 Q 614.1 142.3, 615.0 141.4 Q 615.9 140.6, 616.4 139.8 Q 616.8 139.1, 616.8 138.3 Q 616.8 137.5, 616.4 137.0 Q 616.0 136.6, 615.3 136.6 Q 614.6 136.6, 614.2 136.9 Q 613.7 137.1, 613.4 137.7 L 612.5 137.3 " fill="#000000"/>
<path class="note" d="M 614.1 121.5 L 615.9 121.5 L 615.9 115.2 L 613.9 115.8 L 613.6 115.1 L 616.2 113.9 L 617.0 114.1 L 617.0 121.5 L 618.7 121.5 L 618.7 122.4 L 614.1 122.4 L 614.1 121.5 " fill="#000000"/>
<path class="note" d="M 580.3 174.1 L 582.2 174.1 L 582.2 167.8 L 580.1 168.4 L 579.8 167.7 L 582.4 166.5 L 583.3 166.7 L 583.3 174.1 L 584.9 174.1 L 584.9 175.0 L 580.3 175.0 L 580.3 174.1 " fill="#000000"/>
<path class="note" d="M 590.0 170.6 Q 590.9 170.8, 591.3 171.4 Q 591.7 171.9, 591.7 172.7 Q 591.7 173.4, 591.3 174.0 Q 591.0 174.6, 590.3 174.9 Q 589.6 175.2, 588.8 175.2 Q 587.9 175.2, 587.2 174.9 Q 586.5 174.5, 586.0 173.9 L 586.7 173.2 Q 587.2 173.8, 587.6 174.0 Q 588.1 174.2, 588.8 174.2 Q 589.5 174.2, 590.0 173.8 Q 590.5 173.4, 590.5 172.7 Q 590.5 171.8, 590.0 171.5 Q 589.5 171.1, 588.5 171.1 L 587.9 171.1 L 587.9 170.2 L 588.4 170.2 Q 589.3 170.2, 589.8 169.8 Q 590.3 169.4, 590.3 168.6 Q 590.3 168.1, 589.9 167.8 Q 589.5 167.4, 588.8 167.4 Q 588.1 167.4, 587.6 167.7 Q 587.2 167.9, 586.9 168.6 L 586.1 168.1 Q 586.4 167.4, 587.1 167.0 Q 587.8 166.5, 588.8 166.5 Q 590.0 166.5, 590.8 167.1 Q 591.5 167.7, 591.5 168.6 Q 591.5 169.3, 591.1 169.8 Q 590.7 170.3, 590.0 170.6 " fill="#000000"/>
<path class="note" d="M 550.6 159.8 L 552.4 159.8 L 552.4 153.4 L 550.4 154.1 L 550.1 153.4 L 552.7 152.2 L 553.6 152.4 L 553.6 159.8 L 555.2 159.8 L 555.2 160.7 L 550.6 160.7 L 550.6 159.8 " fill="#000000"/>
<path class="note" d="M 561.8 157.8 L 562.8 157.8 L 562.8 158.8 L 561.8 158.8 L 561.8 160.7 L 560.7 160.7 L 560.7 158.8 L 556.3 158.8 L 556.3 158.0 L 560.0 152.3 L 561.8 152.3 L 561.8 157.8 M 557.7 157.8 L 560.7 157.8 L 560.7 153.0 L 557.7 157.8 " fill="#000000"/>
<path class="note" d="M 523.2 129.4 L 525.0 129.4 L 525.0 123.1 L 523.0 123.7 L 522.7 123.0 L 525.3 121.8 L 526.2 122.0 L 526.2 129.4 L 527.8 129.4 L 527.8 130.3 L 523.2 130.3 L 523.2 129.4 " fill="#000000"/>
<path class="note" d="M 531.9 125.1 Q 532.7 125.1, 533.3 125.4 Q 533.9 125.7, 534.2 126.3 Q 534.6 126.9, 534.6 127.7 Q 534.6 128.5, 534.2 129.2 Q 533.7 129.8, 533.0 130.1 Q 532.4 130.4, 531.6 130.4 Q 530.8 130.4, 530.1 130.2 Q 529.4 129.9, 528.9 129.3 L 529.6 128.6 Q 530.0 129.0, 530.5 129.2 Q 531.1 129.5, 531.6 129.5 Q 532.4 129.5, 532.9 129.0 Q 533.4 128.5, 533.4 127.7 Q 533.4 126.8, 532.9 126.4 Q 532.4 126.0, 531.5 126.0 Q 530.8 126.0, 530.0 126.3 L 529.3 126.0 L 529.7 121.9 L 534.1 121.9 L 533.9 122.8 L 530.7 122.8 L 530.4 125.4 Q 531.2 125.1, 531.9 125.1 " fill="#000000"/>
<path d="M 346.0,150.0 L 502.0,150.0" style="fill:none;fill-rule:evenodd;stroke:#000000;stroke-width:2.0px;stroke-linecap:butt;stroke-linejoin:miter;stroke-opacity:1"/>
<path d="M 502.0,150.0 L 495.2,153.9" style="fill:none;fill-rule:evenodd;stroke:#000000;stroke-width:2.0px;stroke-linecap:butt;stroke-linejoin:miter;stroke-opacity:1"/>
<path d="M 502.0,150.0 L 495.2,146.1" style="fill:none;fill-rule:evenodd;stroke:#000000;stroke-width:2.0px;stroke-linecap:butt;stroke-linejoin:miter;stroke-opacity:1"/>
</svg>